<svg width="16" height="19" viewBox="0 0 16 19" fill="none" xmlns="http://www.w3.org/2000/svg">
<path fill-rule="evenodd" clip-rule="evenodd" d="M15.5 8.92355V15.6667H0.5V8.19252C0.5 4.03585 3.85833 0.666687 8 0.666687C8.0873 0.666687 8.17425 0.668184 8.26082 0.671153C8.10595 1.20037 8.01658 1.75756 8.00209 2.33336C8.0014 2.33336 8.0007 2.33335 8 2.33335C4.77833 2.33335 2.16667 4.95669 2.16667 8.19252V14H13.8333V8.96623C14.0525 8.98856 14.2749 9 14.5 9C14.8401 9 15.174 8.97388 15.5 8.92355ZM9.47314 17.9732C9.86384 17.5825 10.0833 17.0526 10.0833 16.5H5.91667C5.91667 17.0526 6.13616 17.5825 6.52686 17.9732C6.91756 18.3639 7.44747 18.5834 8 18.5834C8.55253 18.5834 9.08244 18.3639 9.47314 17.9732Z" fill="#99A7B5"/>
</svg>
